# xmcd CD database file
#
# Track frame offsets:
#	150
#	26007
#	42534
#	59995
#	81499
#	104008
#	120823
#	147940
#	162015
#	193684
#
# Disc length: 2683 seconds
#
# Revision: 2
# Processed by: cddbd v1.5PL3 Copyright (c) Steve Scherf et al.
# Submitted via: CDex 1.50Beta3
#
DISCID=900a790a
DTITLE=Sandy Patton - Paradise Found
DYEAR=2000
DGENRE=Jazz+Funk
TTITLE0=Summertime
TTITLE1=Fascinating Rhythm
TTITLE2=Lorelai
TTITLE3=Tenderly
TTITLE4=I Got Rhythm
TTITLE5=If You Went Away
TTITLE6=The Creole Love Call
TTITLE7=Someone to Light up my Life
TTITLE8=I Let a Song go out of my Heart
TTITLE9=The Lord's Prayer
EXTD=YEAR: 2000
EXTT0=
EXTT1=
EXTT2=
EXTT3=
EXTT4=
EXTT5=
EXTT6=
EXTT7=
EXTT8=
EXTT9=
PLAYORDER=
